<svg width="52" height="59" viewBox="0 0 52 59" fill="none" xmlns="http://www.w3.org/2000/svg">
<g clip-path="url(#clip0_146_203)">
<path d="M49.4246 28.8755H0V30.383H49.4246V28.8755Z" fill="white"/>
<path d="M45.4104 31.1681C45.4104 34.1465 42.9874 36.5696 40.0089 36.5696H9.23282C6.25437 36.5696 3.83133 34.1465 3.83133 31.1681H2.32397C2.32397 34.9776 5.42332 38.077 9.23292 38.077H40.009C43.8185 38.077 46.918 34.9777 46.918 31.1681H45.4104Z" fill="white"/>
<path d="M40.7717 39.6476H8.54807V41.155H40.7717V39.6476Z" fill="white"/>
<path d="M11.5257 18.0886H10.0183V24.2439H11.5257V18.0886Z" fill="white"/>
<path d="M16.9113 8.85504H15.4038V20.3959H16.9113V8.85504Z" fill="white"/>
<path d="M22.2968 12.703H20.7894V23.475H22.2968V12.703Z" fill="white"/>
<path d="M27.6833 18.8573H26.1758V26.5511H27.6833V18.8573Z" fill="white"/>
<path d="M33.0688 8.0863H31.5614V24.2439H33.0688V8.0863Z" fill="white"/>
<path d="M38.4543 19.6271H36.9468V25.7824H38.4543V19.6271Z" fill="white"/>
<path d="M30.0067 34.2611H19.2347V35.7686H30.0067V34.2611Z" fill="white"/>
</g>
<path d="M1.551 56.088C1.32367 56.088 1.14767 56.0257 1.023 55.901C0.905667 55.769 0.847 55.5893 0.847 55.362V48.872C0.847 48.6373 0.905667 48.4613 1.023 48.344C1.14767 48.2193 1.32367 48.157 1.551 48.157C1.77833 48.157 1.95067 48.2193 2.068 48.344C2.19267 48.4613 2.255 48.6373 2.255 48.872V51.534H3.509L3.234 51.721L5.258 48.52C5.36067 48.366 5.478 48.2633 5.61 48.212C5.74933 48.1607 5.885 48.1497 6.017 48.179C6.149 48.2083 6.26267 48.2707 6.358 48.366C6.45333 48.4613 6.50467 48.5787 6.512 48.718C6.52667 48.8573 6.48267 49.0077 6.38 49.169L4.532 51.996L3.982 51.589C4.45867 51.6623 4.862 51.8347 5.192 52.106C5.522 52.3773 5.80433 52.755 6.039 53.239L6.941 55.087C7.03633 55.2703 7.06567 55.4353 7.029 55.582C6.99967 55.7287 6.92633 55.846 6.809 55.934C6.699 56.0147 6.57067 56.0623 6.424 56.077C6.28467 56.0917 6.14533 56.066 6.006 56C5.874 55.9267 5.76767 55.8057 5.687 55.637L4.818 53.767C4.642 53.3857 4.42933 53.1143 4.18 52.953C3.938 52.7917 3.63367 52.711 3.267 52.711H2.255V55.362C2.255 55.5893 2.19633 55.769 2.079 55.901C1.96167 56.0257 1.78567 56.088 1.551 56.088ZM9.27807 58.068C9.11674 58.068 8.98474 58.024 8.88207 57.936C8.7794 57.8553 8.71707 57.7453 8.69507 57.606C8.6804 57.4667 8.70607 57.32 8.77207 57.166L9.52007 55.505V56.077L7.51807 51.446C7.45207 51.2847 7.43007 51.1343 7.45207 50.995C7.47407 50.8557 7.54007 50.7457 7.65007 50.665C7.7674 50.577 7.92507 50.533 8.12307 50.533C8.29174 50.533 8.4274 50.5733 8.53007 50.654C8.63274 50.7273 8.7244 50.8703 8.80507 51.083L10.2901 54.79H9.96007L11.4781 51.072C11.5587 50.8667 11.6541 50.7273 11.7641 50.654C11.8741 50.5733 12.0207 50.533 12.2041 50.533C12.3654 50.533 12.4937 50.577 12.5891 50.665C12.6844 50.7457 12.7431 50.8557 12.7651 50.995C12.7871 51.127 12.7614 51.2737 12.6881 51.435L10.0151 57.54C9.91974 57.7453 9.81707 57.8847 9.70707 57.958C9.59707 58.0313 9.45407 58.068 9.27807 58.068ZM14.1426 56.055C13.9812 56.055 13.8456 56.011 13.7356 55.923C13.6329 55.8277 13.5779 55.7067 13.5706 55.56C13.5706 55.4133 13.6329 55.2593 13.7576 55.098L15.5396 52.898V53.547L13.8676 51.49C13.7356 51.3287 13.6732 51.1747 13.6806 51.028C13.6879 50.8813 13.7429 50.764 13.8456 50.676C13.9556 50.5807 14.0912 50.533 14.2526 50.533C14.4212 50.533 14.5606 50.5623 14.6706 50.621C14.7879 50.6797 14.8942 50.7713 14.9896 50.896L16.3096 52.59H15.8256L17.1566 50.896C17.2592 50.7713 17.3656 50.6797 17.4756 50.621C17.5856 50.5623 17.7212 50.533 17.8826 50.533C18.0512 50.533 18.1869 50.5807 18.2896 50.676C18.3922 50.7713 18.4436 50.8923 18.4436 51.039C18.4509 51.1857 18.3886 51.3397 18.2566 51.501L16.5956 53.536V52.92L18.3776 55.098C18.5096 55.252 18.5719 55.4023 18.5646 55.549C18.5572 55.6957 18.4986 55.8167 18.3886 55.912C18.2859 56.0073 18.1502 56.055 17.9816 56.055C17.8202 56.055 17.6846 56.0257 17.5746 55.967C17.4646 55.9083 17.3582 55.8167 17.2556 55.692L15.8256 53.888H16.2876L14.8686 55.692C14.7732 55.8093 14.6706 55.901 14.5606 55.967C14.4506 56.0257 14.3112 56.055 14.1426 56.055ZM22.2694 56.11C21.7121 56.11 21.2281 55.9963 20.8174 55.769C20.4067 55.5417 20.0877 55.219 19.8604 54.801C19.6331 54.3757 19.5194 53.877 19.5194 53.305C19.5194 52.8723 19.5817 52.4873 19.7064 52.15C19.8384 51.8053 20.0254 51.512 20.2674 51.27C20.5094 51.0207 20.7991 50.8337 21.1364 50.709C21.4737 50.577 21.8514 50.511 22.2694 50.511C22.8267 50.511 23.3107 50.6247 23.7214 50.852C24.1321 51.0793 24.4511 51.402 24.6784 51.82C24.9057 52.238 25.0194 52.733 25.0194 53.305C25.0194 53.7377 24.9534 54.1263 24.8214 54.471C24.6967 54.8157 24.5134 55.1127 24.2714 55.362C24.0294 55.604 23.7397 55.791 23.4024 55.923C23.0651 56.0477 22.6874 56.11 22.2694 56.11ZM22.2694 55.065C22.5407 55.065 22.7791 54.999 22.9844 54.867C23.1897 54.735 23.3474 54.5407 23.4574 54.284C23.5747 54.02 23.6334 53.6937 23.6334 53.305C23.6334 52.7183 23.5087 52.282 23.2594 51.996C23.0101 51.7027 22.6801 51.556 22.2694 51.556C21.9981 51.556 21.7597 51.622 21.5544 51.754C21.3491 51.8787 21.1877 52.073 21.0704 52.337C20.9604 52.5937 20.9054 52.9163 20.9054 53.305C20.9054 53.8843 21.0301 54.3243 21.2794 54.625C21.5287 54.9183 21.8587 55.065 22.2694 55.065ZM26.9867 56.088C26.7667 56.088 26.5944 56.0293 26.4697 55.912C26.3524 55.7873 26.2937 55.6113 26.2937 55.384V51.226C26.2937 50.9913 26.3524 50.819 26.4697 50.709C26.5944 50.5917 26.7667 50.533 26.9867 50.533C27.2067 50.533 27.3754 50.5917 27.4927 50.709C27.61 50.819 27.6687 50.9913 27.6687 51.226V52.7H30.0447V51.226C30.0447 50.9913 30.1034 50.819 30.2207 50.709C30.338 50.5917 30.5067 50.533 30.7267 50.533C30.9467 50.533 31.1154 50.5917 31.2327 50.709C31.3574 50.819 31.4197 50.9913 31.4197 51.226V55.384C31.4197 55.6113 31.3574 55.7873 31.2327 55.912C31.1154 56.0293 30.9467 56.088 30.7267 56.088C30.5067 56.088 30.338 56.0293 30.2207 55.912C30.1034 55.7873 30.0447 55.6113 30.0447 55.384V53.778H27.6687V55.384C27.6687 55.6113 27.61 55.7873 27.4927 55.912C27.3827 56.0293 27.214 56.088 26.9867 56.088ZM33.6681 56C33.4481 56 33.2794 55.9413 33.1621 55.824C33.0447 55.7067 32.9861 55.538 32.9861 55.318V51.226C32.9861 50.9913 33.0447 50.819 33.1621 50.709C33.2867 50.5917 33.4591 50.533 33.6791 50.533C33.8991 50.533 34.0677 50.5917 34.1851 50.709C34.3024 50.819 34.3611 50.9913 34.3611 51.226V52.403H35.7801C36.4914 52.403 37.0267 52.5533 37.3861 52.854C37.7527 53.1547 37.9361 53.5947 37.9361 54.174C37.9361 54.5407 37.8481 54.8633 37.6721 55.142C37.4961 55.4133 37.2467 55.626 36.9241 55.78C36.6087 55.9267 36.2274 56 35.7801 56H33.6681ZM34.3611 55.098H35.5711C35.9157 55.098 36.1834 55.0247 36.3741 54.878C36.5647 54.724 36.6601 54.493 36.6601 54.185C36.6601 53.8843 36.5647 53.6643 36.3741 53.525C36.1834 53.3783 35.9157 53.305 35.5711 53.305H34.3611V55.098ZM39.7592 56.088C39.5392 56.088 39.3668 56.0293 39.2422 55.912C39.1248 55.7873 39.0662 55.6113 39.0662 55.384V51.248C39.0662 51.0207 39.1248 50.8483 39.2422 50.731C39.3668 50.6063 39.5392 50.544 39.7592 50.544C39.9792 50.544 40.1478 50.6063 40.2652 50.731C40.3825 50.8483 40.4412 51.0207 40.4412 51.248V52.711H41.2222L42.5972 50.863C42.6998 50.7237 42.8172 50.6357 42.9492 50.599C43.0812 50.555 43.2058 50.5513 43.3232 50.588C43.4478 50.6247 43.5468 50.6907 43.6202 50.786C43.7008 50.8813 43.7412 50.995 43.7412 51.127C43.7485 51.2517 43.7008 51.3837 43.5982 51.523L42.2892 53.316L41.9922 52.876C42.1902 52.898 42.3662 52.953 42.5202 53.041C42.6815 53.129 42.8282 53.2537 42.9602 53.415C43.0995 53.569 43.2352 53.7633 43.3672 53.998L44.0162 55.153C44.1042 55.307 44.1335 55.45 44.1042 55.582C44.0822 55.7067 44.0198 55.813 43.9172 55.901C43.8218 55.989 43.7082 56.044 43.5762 56.066C43.4442 56.088 43.3122 56.0697 43.1802 56.011C43.0555 55.9597 42.9492 55.857 42.8612 55.703L42.1242 54.416C42.0288 54.2473 41.9335 54.119 41.8382 54.031C41.7502 53.9357 41.6475 53.8697 41.5302 53.833C41.4202 53.7963 41.2845 53.778 41.1232 53.778H40.4412V55.384C40.4412 55.6113 40.3825 55.7873 40.2652 55.912C40.1478 56.0293 39.9792 56.088 39.7592 56.088ZM46.9927 56.11C46.604 56.11 46.2557 56.0367 45.9477 55.89C45.647 55.736 45.4087 55.5307 45.2327 55.274C45.064 55.0173 44.9797 54.7277 44.9797 54.405C44.9797 54.009 45.0824 53.6973 45.2877 53.47C45.493 53.2353 45.8267 53.0667 46.2887 52.964C46.7507 52.8613 47.3704 52.81 48.1477 52.81H48.6977V53.602H48.1587C47.704 53.602 47.341 53.624 47.0697 53.668C46.7984 53.712 46.604 53.789 46.4867 53.899C46.3767 54.0017 46.3217 54.1483 46.3217 54.339C46.3217 54.581 46.406 54.779 46.5747 54.933C46.7434 55.087 46.978 55.164 47.2787 55.164C47.5207 55.164 47.7334 55.109 47.9167 54.999C48.1074 54.8817 48.2577 54.724 48.3677 54.526C48.4777 54.328 48.5327 54.1007 48.5327 53.844V52.579C48.5327 52.2123 48.452 51.9483 48.2907 51.787C48.1294 51.6257 47.858 51.545 47.4767 51.545C47.264 51.545 47.033 51.5707 46.7837 51.622C46.5417 51.6733 46.285 51.7613 46.0137 51.886C45.8744 51.952 45.7497 51.9703 45.6397 51.941C45.537 51.9117 45.4564 51.853 45.3977 51.765C45.339 51.6697 45.3097 51.567 45.3097 51.457C45.3097 51.347 45.339 51.2407 45.3977 51.138C45.4564 51.028 45.5554 50.9473 45.6947 50.896C46.032 50.7567 46.3547 50.6577 46.6627 50.599C46.978 50.5403 47.264 50.511 47.5207 50.511C48.0487 50.511 48.4814 50.5917 48.8187 50.753C49.1634 50.9143 49.42 51.16 49.5887 51.49C49.7574 51.8127 49.8417 52.2307 49.8417 52.744V55.384C49.8417 55.6113 49.7867 55.7873 49.6767 55.912C49.5667 56.0293 49.409 56.088 49.2037 56.088C48.9984 56.088 48.837 56.0293 48.7197 55.912C48.6097 55.7873 48.5547 55.6113 48.5547 55.384V54.856H48.6427C48.5914 55.1127 48.4887 55.3363 48.3347 55.527C48.188 55.7103 48.001 55.8533 47.7737 55.956C47.5464 56.0587 47.286 56.11 46.9927 56.11Z" fill="white"/>
<defs>
<clipPath id="clip0_146_203">
<rect width="49.2414" height="49.2414" fill="white"/>
</clipPath>
</defs>
</svg>
