<svg width="18" height="19" viewBox="0 0 18 19" fill="none" xmlns="http://www.w3.org/2000/svg">
<g clip-path="url(#clip0_146_303)">
<mask id="path-1-inside-1_146_303" fill="white">
<path d="M15.364 3.08496C13.6641 1.37035 11.404 0.426025 9 0.426025C6.59602 0.426025 4.33592 1.37035 2.63602 3.08496C0.936186 4.79965 0 7.0794 0 9.50429C0 11.9292 0.936186 14.2089 2.63602 15.9236C4.33592 17.6382 6.59602 18.5825 9 18.5825C10.2148 18.5825 11.3935 18.3424 12.5034 17.8689L12.0696 16.8345C11.0977 17.2492 10.0649 17.4595 9 17.4595C4.65131 17.4595 1.1134 13.8908 1.1134 9.50429C1.1134 5.11778 4.65131 1.54911 9 1.54911C13.3487 1.54911 16.8866 5.11778 16.8866 9.50429C16.8866 11.4256 15.7163 12.3007 14.6288 12.3007C13.5415 12.3007 12.3711 11.4257 12.3711 9.50429C12.3711 7.62926 10.8589 6.10385 9 6.10385C7.14114 6.10385 5.62888 7.6293 5.62888 9.50429C5.62888 11.3793 7.14114 12.9047 9 12.9047C10.1006 12.9047 11.0796 12.3699 11.6952 11.5445C11.8529 11.8656 12.0513 12.156 12.2905 12.4097C12.9071 13.0637 13.7375 13.4238 14.6288 13.4238C15.5202 13.4238 16.3506 13.0636 16.9672 12.4097C17.6429 11.6932 18 10.6885 18 9.50429C18 7.0794 17.0638 4.79965 15.364 3.08496ZM9 11.7816C7.75511 11.7816 6.74228 10.76 6.74228 9.50429C6.74228 8.24857 7.75511 7.22693 9 7.22693C10.2449 7.22693 11.2577 8.24857 11.2577 9.50429C11.2577 10.76 10.2449 11.7816 9 11.7816Z"/>
</mask>
<path d="M15.364 3.08496C13.6641 1.37035 11.404 0.426025 9 0.426025C6.59602 0.426025 4.33592 1.37035 2.63602 3.08496C0.936186 4.79965 0 7.0794 0 9.50429C0 11.9292 0.936186 14.2089 2.63602 15.9236C4.33592 17.6382 6.59602 18.5825 9 18.5825C10.2148 18.5825 11.3935 18.3424 12.5034 17.8689L12.0696 16.8345C11.0977 17.2492 10.0649 17.4595 9 17.4595C4.65131 17.4595 1.1134 13.8908 1.1134 9.50429C1.1134 5.11778 4.65131 1.54911 9 1.54911C13.3487 1.54911 16.8866 5.11778 16.8866 9.50429C16.8866 11.4256 15.7163 12.3007 14.6288 12.3007C13.5415 12.3007 12.3711 11.4257 12.3711 9.50429C12.3711 7.62926 10.8589 6.10385 9 6.10385C7.14114 6.10385 5.62888 7.6293 5.62888 9.50429C5.62888 11.3793 7.14114 12.9047 9 12.9047C10.1006 12.9047 11.0796 12.3699 11.6952 11.5445C11.8529 11.8656 12.0513 12.156 12.2905 12.4097C12.9071 13.0637 13.7375 13.4238 14.6288 13.4238C15.5202 13.4238 16.3506 13.0636 16.9672 12.4097C17.6429 11.6932 18 10.6885 18 9.50429C18 7.0794 17.0638 4.79965 15.364 3.08496ZM9 11.7816C7.75511 11.7816 6.74228 10.76 6.74228 9.50429C6.74228 8.24857 7.75511 7.22693 9 7.22693C10.2449 7.22693 11.2577 8.24857 11.2577 9.50429C11.2577 10.76 10.2449 11.7816 9 11.7816Z" fill="black"/>
<path d="M15.364 3.08496L725.541 -700.939L725.525 -700.954L725.51 -700.97L15.364 3.08496ZM2.63602 3.08496L-707.51 -700.97L-707.525 -700.954L-707.541 -700.939L2.63602 3.08496ZM2.63602 15.9236L-707.541 719.947L-707.525 719.963L-707.51 719.978L2.63602 15.9236ZM12.5034 17.8689L404.919 937.657L1319.06 547.653L934.692 -368.871L12.5034 17.8689ZM12.0696 16.8345L934.259 -369.905L545.116 -1297.82L-380.375 -902.941L12.0696 16.8345ZM11.6952 11.5445L909.328 -429.201L188.24 -1897.79L-789.903 -586.319L11.6952 11.5445ZM12.2905 12.4097L739.881 -673.602L739.862 -673.622L739.843 -673.642L12.2905 12.4097ZM16.9672 12.4097L-710.588 -673.64L-710.596 -673.631L-710.603 -673.623L16.9672 12.4097ZM725.51 -700.97C536.965 -891.146 279.435 -999.574 9 -999.574V1000.43C-256.627 1000.43 -509.636 893.887 -694.782 707.14L725.51 -700.97ZM9 -999.574C-261.435 -999.574 -518.965 -891.146 -707.51 -700.97L712.782 707.14C527.636 893.887 274.627 1000.43 9 1000.43V-999.574ZM-707.541 -700.939C-895.787 -511.047 -1000 -255.364 -1000 9.50429H1000C1000 269.523 897.66 520.646 712.813 707.109L-707.541 -700.939ZM-1000 9.50429C-1000 274.372 -895.787 530.055 -707.541 719.947L712.813 -688.1C897.66 -501.637 1000 -250.514 1000 9.50429H-1000ZM-707.51 719.978C-518.965 910.155 -261.435 1018.58 9 1018.58V-981.417C274.627 -981.417 527.636 -874.878 712.782 -688.131L-707.51 719.978ZM9 1018.58C144.171 1018.58 278.908 991.418 404.919 937.657L-379.912 -901.919C-256.121 -954.733 -123.741 -981.417 9 -981.417V1018.58ZM934.692 -368.871L934.259 -369.905L-910.119 403.574L-909.686 404.608L934.692 -368.871ZM-380.375 -902.941C-256.27 -955.894 -123.717 -982.541 9 -982.541V1017.46C143.847 1017.46 278.465 990.392 404.514 936.61L-380.375 -902.941ZM9 -982.541C565.081 -982.541 1001.11 -530.214 1001.11 9.50429H-998.887C-998.887 557.995 -555.778 1017.46 9 1017.46V-982.541ZM1001.11 9.50429C1001.11 549.222 565.081 1001.55 9 1001.55V-998.451C-555.778 -998.451 -998.887 -538.987 -998.887 9.50429H1001.11ZM9 1001.55C-547.081 1001.55 -983.113 549.222 -983.113 9.50429H1016.89C1016.89 -538.987 573.778 -998.451 9 -998.451V1001.55ZM-983.113 9.50429C-983.113 -197.902 -915.674 -455.652 -714.759 -670.835C-519.623 -879.829 -252.355 -987.699 14.6288 -987.699V1012.3C282.7 1012.3 551.097 903.993 747.09 694.081C948.862 477.98 1016.89 218.832 1016.89 9.50429H-983.113ZM14.6288 -987.699C281.61 -987.699 548.879 -879.831 744.018 -670.834C944.935 -455.648 1012.37 -197.897 1012.37 9.50429H-987.629C-987.629 218.827 -919.607 477.976 -717.833 694.08C-521.838 903.995 -253.439 1012.3 14.6288 1012.3V-987.699ZM1012.37 9.50429C1012.37 -536.475 571.288 -993.896 9 -993.896V1006.1C-549.571 1006.1 -987.629 551.734 -987.629 9.50429H1012.37ZM9 -993.896C-553.296 -993.896 -994.371 -536.468 -994.371 9.50429H1005.63C1005.63 551.726 567.578 1006.1 9 1006.1V-993.896ZM-994.371 9.50429C-994.371 555.476 -553.296 1012.9 9 1012.9V-987.095C567.578 -987.095 1005.63 -532.718 1005.63 9.50429H-994.371ZM9 1012.9C342.314 1012.9 634.032 849.756 813.293 609.408L-789.903 -586.319C-611.873 -825.016 -322.113 -987.095 9 -987.095V1012.9ZM-885.937 452.29C-844.365 536.956 -788.209 621.102 -715.262 698.462L739.843 -673.642C812.311 -596.79 868.071 -513.225 909.328 -429.201L-885.937 452.29ZM-715.3 698.422C-527.517 897.586 -264.261 1013.42 14.6288 1013.42V-986.576C291.736 -986.576 553.331 -871.458 739.881 -673.602L-715.3 698.422ZM14.6288 1013.42C293.538 1013.42 556.776 897.573 744.538 698.442L-710.603 -673.623C-524.075 -871.446 -262.497 -986.576 14.6288 -986.576V1013.42ZM744.522 698.459C954.426 475.856 1018 211.025 1018 9.50429H-982C-982 -189.648 -919.141 -452.47 -710.588 -673.64L744.522 698.459ZM1018 9.50429C1018 -255.364 913.787 -511.047 725.541 -700.939L-694.813 707.109C-879.66 520.646 -982 269.523 -982 9.50429H1018ZM9 -988.218C568.185 -988.218 1006.74 -533.344 1006.74 9.50429H-993.258C-993.258 554.864 -552.675 1011.78 9 1011.78V-988.218ZM1006.74 9.50429C1006.74 552.353 568.185 1007.23 9 1007.23V-992.773C-552.675 -992.773 -993.258 -535.856 -993.258 9.50429H1006.74ZM9 1007.23C-550.185 1007.23 -988.742 552.353 -988.742 9.50429H1011.26C1011.26 -535.856 570.674 -992.773 9 -992.773V1007.23ZM-988.742 9.50429C-988.742 -533.344 -550.185 -988.218 9 -988.218V1011.78C570.675 1011.78 1011.26 554.864 1011.26 9.50429H-988.742Z" fill="black" mask="url(#path-1-inside-1_146_303)"/>
</g>
<defs>
<clipPath id="clip0_146_303">
<rect width="18" height="18.1565" fill="white" transform="translate(0 0.426025)"/>
</clipPath>
</defs>
</svg>
