<svg width="18" height="19" viewBox="0 0 18 19" fill="none" xmlns="http://www.w3.org/2000/svg">
<path d="M17.5 9.50429C17.5 14.246 13.6903 18.0825 9 18.0825C4.30965 18.0825 0.5 14.246 0.5 9.50429C0.5 4.76255 4.30965 0.926025 9 0.926025C13.6903 0.926025 17.5 4.76255 17.5 9.50429Z" stroke="black"/>
<path fill-rule="evenodd" clip-rule="evenodd" d="M4.07389 9.40843C6.69756 8.25539 8.44709 7.49524 9.32247 7.12797C11.8219 6.07935 12.3412 5.89719 12.6797 5.89118C12.7542 5.88985 12.9206 5.90847 13.0285 5.99672C13.1195 6.07125 13.1446 6.17192 13.1566 6.24257C13.1685 6.31323 13.1835 6.47419 13.1716 6.59996C13.0362 8.03544 12.4501 11.519 12.1519 13.1268C12.0258 13.8071 11.7774 14.0352 11.5369 14.0575C11.0142 14.106 10.6174 13.7091 10.1112 13.3744C9.31904 12.8506 8.87155 12.5246 8.10266 12.0135C7.21408 11.4228 7.79011 11.0982 8.29651 10.5677C8.42904 10.4288 10.7318 8.31603 10.7764 8.12437C10.782 8.1004 10.7871 8.01105 10.7345 7.96387C10.6819 7.91669 10.6042 7.93282 10.5482 7.94565C10.4687 7.96384 9.20332 8.80751 6.75194 10.4767C6.39276 10.7254 6.06742 10.8467 5.77593 10.8403C5.45458 10.8333 4.83644 10.657 4.37692 10.5064C3.8133 10.3216 3.36534 10.2238 3.40435 9.90999C3.42466 9.74651 3.64784 9.57933 4.07389 9.40843Z" fill="black"/>
</svg>
