<svg width="18" height="19" viewBox="0 0 18 19" fill="none" xmlns="http://www.w3.org/2000/svg">
<path d="M0.5 9.14116C0.5 7.07296 0.501044 5.57168 0.653779 4.42578C0.804656 3.29381 1.09534 2.58395 1.62038 2.05435C2.14482 1.52534 2.84682 1.23294 3.96697 1.08103C5.10196 0.927105 6.58927 0.926025 8.64 0.926025H9.36C11.4107 0.926025 12.898 0.927105 14.033 1.08103C15.1532 1.23294 15.8552 1.52534 16.3796 2.05435C16.9047 2.58395 17.1953 3.29381 17.3462 4.42578C17.499 5.57168 17.5 7.07296 17.5 9.14116V9.86742C17.5 11.9356 17.499 13.4369 17.3462 14.5828C17.1953 15.7147 16.9047 16.4246 16.3796 16.9542C15.8552 17.4832 15.1532 17.7756 14.033 17.9275C12.898 18.0815 11.4107 18.0825 9.36 18.0825H8.64C6.58927 18.0825 5.10196 18.0815 3.96697 17.9275C2.84682 17.7756 2.14482 17.4832 1.62038 16.9542C1.09534 16.4246 0.804656 15.7148 0.653779 14.5828C0.501044 13.4369 0.5 11.9356 0.5 9.86742V9.14116Z" stroke="black"/>
<path d="M9.5776 13.5064C5.47507 13.5064 3.1351 10.6694 3.0376 5.94873H5.09261C5.16011 9.41361 6.67508 10.8813 7.87509 11.1839V5.94873H9.81017V8.937C10.9952 8.80839 12.24 7.44665 12.66 5.94873H14.5951C14.2726 7.79465 12.9226 9.15639 11.9626 9.71622C12.9226 10.1701 14.4602 11.3579 15.0452 13.5064H12.9151C12.4576 12.069 11.3177 10.9569 9.81017 10.8056V13.5064H9.5776Z" fill="black"/>
</svg>
